<svg xmlns="http://www.w3.org/2000/svg" viewBox="0 0 64 64">
  <rect width="64" height="64" rx="14" fill="#07070d"/>
  <rect x="1" y="1" width="62" height="62" rx="13" fill="none" stroke="#8b5cf6" stroke-opacity=".36" stroke-width="2"/>
  <path d="M33 12c-8.5 0-15.4 6.9-15.4 15.4v2.8H14v5.6h3.6v2.8C17.6 47.1 24.5 54 33 54c5.3 0 10-2.7 12.8-6.8l-4.5-3.2A10 10 0 0 1 33 48.4c-5.4 0-9.8-4.4-9.8-9.8v-2.8H33v-5.6h-9.8v-2.8c0-5.4 4.4-9.8 9.8-9.8 3.4 0 6.3 1.7 8.1 4.3l4.5-3.2A15.3 15.3 0 0 0 33 12Z" fill="#f8fafc"/>
  <circle cx="45" cy="32" r="5" fill="#67e8f9"/>
</svg>
